# xmcd CD database file
#
# Track frame offsets:
#	150
#	16048
#	33575
#	46573
#	59394
#	72075
#	84297
#	95111
#	107634
#	117426
#	130346
#	141831
#	152501
#	161628
#	174989
#	188134
#
# Disc length: 2697 seconds
#
# Revision: 2
# Processed by: cddbd v1.5.2PL0 Copyright (c) Steve Scherf et al.
# Submitted via: CDex 1.70beta2
#
DISCID=ca0a8710
DTITLE=Various Artist - The Greatest Country Singers
DYEAR=2003
DGENRE=Country
TTITLE0=Billie Jo Spears - Blanket On The Ground
TTITLE1=Skeeter Davis - Always On My Mind
TTITLE2=Kenny Rogers - Ruby
TTITLE3=Lynn Anderson - Rose Garden
TTITLE4=Freddy Fender - Wasted Days and Wasted Nights
TTITLE5=Merle Haggard - Okie From Muskogee
TTITLE6=Dolly Parton - It Wasn`t God Made Honkytonk Angels
TTITLE7=Johnny Cash - Folsom Prison Blues
TTITLE8=Willie Nelson - Let's Pretend
TTITLE9=Faron Young - It's Four In The Morning
TTITLE10=Patsy Cline - Walkin' After Midnight
TTITLE11=Roger Miller - King Of The Road
TTITLE12=Frankie Laine - Rawhide
TTITLE13=Patti Page - Tennessee Waltz
TTITLE14=Charlie Rich - Behind Closed Doors
TTITLE15=Glen Campbell - Rhinestone Cowboy
EXTD=YEAR: 2003
EXTT0=
EXTT1=
EXTT2=
EXTT3=
EXTT4=
EXTT5=
EXTT6=
EXTT7=
EXTT8=
EXTT9=
EXTT10=
EXTT11=
EXTT12=
EXTT13=
EXTT14=
EXTT15=
PLAYORDER=
